# xmcd CD database file generated by OrangeCD 6.3
#
# Track frame offsets:
#	150
#	16875
#	34697
#
# Disc length: 989 seconds
#
# Revision: 2
# Processed by: cddbd v1.5.2PL0 Copyright (c) Steve Scherf et al.
# Submitted via: OrangeCD 6.3
#
DISCID=1703db03
DTITLE=Zoë Birkett - Treat Me Like A Lady (Single)
DYEAR=1900
DGENRE=Pop
TTITLE0=Treat Me Like A Lady
TTITLE1=Say A Little Prayer
TTITLE2=Treat Me Like A Lady (Illicit Vocal Mix)
EXTD=
EXTT0=
EXTT1=
EXTT2=
PLAYORDER=
